Coordinates
version=1
nRows=19
nColumns=24
inDegrees=yes

Units are S.I. units (second, meters, Newtons, ...)
Angles are in degrees.

endheader
time	pelvis_tilt	pelvis_list	pelvis_rotation	pelvis_tx	pelvis_ty	pelvis_tz	hip_flexion_r	hip_adduction_r	hip_rotation_r	knee_angle_r	ankle_angle_r	subtalar_angle_r	mtp_angle_r	hip_flexion_l	hip_adduction_l	hip_rotation_l	knee_angle_l	ankle_angle_l	subtalar_angle_l	mtp_angle_l	lumbar_extension	lumbar_bending	lumbar_rotation
      5.91500000	     13.12567426	      2.82817182	     11.38510868	      1.51822281	      0.91807056	     -0.27445258	      6.86571675	     -4.31609360	     -7.85100030	      0.10657818	     14.98099756	     -1.92999723	      0.00000000	    -30.27957966	      0.44195552	     14.61532426	    -10.72281085	     22.99205476	      4.37834617	      0.00000000	    -29.19597998	      2.33987622	    -16.11065634
      5.92000000	     13.27725027	      2.54412219	     11.53104722	      1.52555075	      0.91753876	     -0.27420033	      6.79531000	     -3.94848043	     -7.64312571	     -0.24599108	     14.87759490	     -2.12717409	      0.00000000	    -30.55156103	     -0.03497624	     14.21244606	    -11.36712573	     22.93086310	      5.00886804	      0.00000000	    -29.26302861	      2.72622711	    -16.11174796
      5.92500000	     13.35965961	      2.21938133	     11.71599755	      1.53294382	      0.91699089	     -0.27398850	      6.81374619	     -3.55470106	     -7.46838037	     -0.72496576	     14.81424569	     -2.30601844	      0.00000000	    -30.71588448	     -0.55284073	     13.89649563	    -12.06619240	     22.86590487	      5.66320077	      0.00000000	    -29.23127443	      3.15693584	    -16.12270231
      5.93000000	     13.46334536	      1.84538857	     11.88538888	      1.54041011	      0.91650177	     -0.27372011	      6.82542073	     -3.09423896	     -7.28856674	     -1.29788193	     14.75492567	     -2.49846357	      0.00000000	    -30.87679499	     -1.11915914	     13.48542916	    -12.79983366	     22.75873094	      6.35800648	      0.00000000	    -29.20486575	      3.62970282	    -16.09621152
      5.93500000	     13.60094226	      1.42366047	     12.01692693	      1.54796147	      0.91607653	     -0.27336370	      6.81569471	     -2.55934767	     -7.12706856	     -1.94649414	     14.69467291	     -2.72139492	      0.00000000	    -31.04878400	     -1.72299460	     12.98602922	    -13.57513513	     22.59029101	      7.09090528	      0.00000000	    -29.19677599	      4.13550639	    -16.02254560
      5.94000000	     13.84157578	      0.96445051	     12.09165206	      1.55553606	      0.91576511	     -0.27290446	      6.71615048	     -1.94842630	     -6.87089088	     -2.67094399	     14.61679683	     -2.97727573	      0.00000000	    -31.32037550	     -2.36079791	     12.37747363	    -14.35797163	     22.36669459	      7.84946382	      0.00000000	    -29.30475122	      4.67365922	    -15.88177935
      5.94500000	     13.91125371	      0.47376168	     12.27565972	      1.56321249	      0.91535881	     -0.27256664	      6.78895816	     -1.35003570	     -6.80991623	     -3.46484368	     14.57743793	     -3.15309940	      0.00000000	    -31.34786146	     -3.04066687	     11.91097676	    -15.24697990	     22.12418458	      8.57065997	      0.00000000	    -29.18635730	      5.24822291	    -15.80707266
      5.95000000	     14.01386223	     -0.04430179	     12.41305293	      1.57092910	      0.91500207	     -0.27211080	      6.84013637	     -0.70034748	     -6.69675939	     -4.31500751	     14.51828750	     -3.35461850	      0.00000000	    -31.38728074	     -3.73890812	     11.34857568	    -16.17234714	     21.83183794	      9.36655386	      0.00000000	    -29.10289314	      5.83204719	    -15.70065317
      5.95500000	     14.11912349	     -0.58364442	     12.53476625	      1.57866455	      0.91467403	     -0.27164493	      6.88702480	     -0.02271400	     -6.56202051	     -5.19379383	     14.44174764	     -3.52961445	      0.00000000	    -31.39169101	     -4.44443922	     10.78083566	    -17.16747063	     21.49685579	     10.13285919	      0.00000000	    -29.01511621	      6.43743358	    -15.58974552
      5.96000000	     14.26890209	     -1.14070109	     12.62803260	      1.58653511	      0.91442495	     -0.27102119	      6.88288133	      0.70890109	     -6.42828164	     -6.09978908	     14.37213645	     -3.82990986	      0.00000000	    -31.44067346	     -5.18469936	     10.08835722	    -18.15506194	     21.03396194	     10.96835340	      0.00000000	    -28.96070240	      7.01809345	    -15.36886331
      5.96500000	     14.35157468	     -1.71947990	     12.73765895	      1.59433811	      0.91414718	     -0.27049250	      6.94849375	      1.43607349	     -6.35963764	     -7.02384562	     14.25481947	     -3.96374486	      0.00000000	    -31.34957944	     -5.91955617	      9.50710230	    -19.26443019	     20.57986773	     11.73078434	      0.00000000	    -28.83724938	      7.64935445	    -15.25359215
      5.97000000	     14.43340989	     -2.30053825	     12.84708790	      1.60222371	      0.91390496	     -0.26987860	      6.99978509	      2.17993245	     -6.29967154	     -7.94788765	     14.15595518	     -4.16224477	      0.00000000	    -31.23109445	     -6.67203610	      8.87992354	    -20.40897101	     20.03035902	     12.52608024	      0.00000000	    -28.69977288	      8.25673698	    -15.10282319
      5.97500000	     14.51141440	     -2.88727078	     12.94798875	      1.61013036	      0.91368720	     -0.26922719	      7.04335785	      2.93699573	     -6.23402732	     -8.86686465	     14.06264887	     -4.37091218	      0.00000000	    -31.07202709	     -7.42639110	      8.26338559	    -21.60937010	     19.42077291	     13.28194401	      0.00000000	    -28.55676863	      8.86161857	    -14.93807254
      5.98000000	     14.57702351	     -3.46783599	     13.04559849	      1.61802285	      0.91349947	     -0.26855071	      7.08546380	      3.68948060	     -6.18058754	     -9.77270513	     13.96514767	     -4.56766695	      0.00000000	    -30.85657239	     -8.17297364	      7.66603834	    -22.87199413	     18.74054545	     13.99656984	      0.00000000	    -28.40325306	      9.45307394	    -14.77984110
      5.98500000	     14.62755723	     -4.04051943	     13.14806794	      1.62591738	      0.91333824	     -0.26787208	      7.12110312	      4.43372067	     -6.14005378	    -10.64989533	     13.87427791	     -4.75256683	      0.00000000	    -30.58177899	     -8.91192689	      7.10641815	    -24.19379735	     17.99526487	     14.66036399	      0.00000000	    -28.23227131	     10.03325882	    -14.63328099
      5.99000000	     14.66402013	     -4.61412797	     13.25362521	      1.63381714	      0.91319199	     -0.26718251	      7.15581509	      5.18058561	     -6.10776778	    -11.50469200	     13.80450594	     -4.94911229	      0.00000000	    -30.24927130	     -9.65328180	      6.57103606	    -25.56792557	     17.20530976	     15.27508408	      0.00000000	    -28.04368662	     10.61063798	    -14.49343145
      5.99500000	     14.68652985	     -5.17699143	     13.35182691	      1.64167667	      0.91306263	     -0.26645797	      7.19260862	      5.91864372	     -6.08796195	    -12.33993503	     13.75211964	     -5.16749985	      0.00000000	    -29.85751254	    -10.38015947	      6.06462808	    -26.99545735	     16.37472961	     15.81594387	      0.00000000	    -27.85033328	     11.16676065	    -14.36852000
      6.00000000	     14.69273520	     -5.72079204	     13.46488969	      1.64951893	      0.91297851	     -0.26577217	      7.21015374	      6.63227077	     -6.07873037	    -13.11136730	     13.71162218	     -5.34046152	      0.00000000	    -29.39797921	    -11.08884321	      5.63341625	    -28.47789546	     15.46560755	     16.27339180	      0.00000000	    -27.63836825	     11.70903870	    -14.25917442
      6.00500000	     14.67632729	     -6.24673604	     13.58567706	      1.65729548	      0.91290629	     -0.26506317	      7.23081548	      7.32574787	     -6.09065633	    -13.83980189	     13.69138863	     -5.53577132	      0.00000000	    -28.85703641	    -11.78402718	      5.23565359	    -30.02260824	     14.54100600	     16.64824551	      0.00000000	    -27.41204085	     12.22459341	    -14.17831333
